<svg version="1.1" id="Layer_1" xmlns="http://www.w3.org/2000/svg" xmlns:xlink="http://www.w3.org/1999/xlink" x="0px" y="0px"
	 width="100%" viewBox="0 0 864 1024" enable-background="new 0 0 864 1024" xml:space="preserve">
<path fill="#000000" opacity="1.000000" stroke="none" 
	d="
M110.775742,602.255615 
	C99.143188,602.232849 87.977592,602.213501 76.811996,602.188904 
	C75.312325,602.185547 73.810028,602.206543 72.313522,602.128540 
	C63.095734,601.648071 61.882778,600.025635 65.540741,591.479675 
	C81.859955,553.353394 98.337494,515.294922 114.752365,477.209564 
	C117.705376,470.358093 120.632721,463.495575 123.961823,455.728455 
	C116.317375,455.226105 109.441559,454.710541 102.558144,454.333893 
	C81.940948,453.205841 61.319984,452.146759 40.702984,451.015320 
	C38.546906,450.897003 36.396923,450.538330 34.263317,450.177582 
	C32.275776,449.841553 30.781839,448.811310 30.825052,446.580414 
	C30.872330,444.139557 32.463287,443.037201 34.708824,442.859772 
	C36.364719,442.728912 38.038506,442.769714 39.702702,442.806793 
	C67.514992,443.426422 95.329147,443.982849 123.136856,444.766876 
	C127.278259,444.883636 129.402893,443.524323 131.034943,439.706818 
	C142.557999,412.753143 154.202347,385.849945 166.062927,359.043457 
	C167.731613,355.272064 166.834198,353.859314 163.484436,352.267426 
	C129.481094,336.108154 95.529465,319.840088 61.572334,303.583710 
	C59.321789,302.506287 57.091976,301.364075 54.949699,300.088745 
	C53.196838,299.045227 51.406448,297.732513 52.688251,295.304626 
	C53.851151,293.102020 55.946617,293.171600 57.941967,293.872772 
	C60.924587,294.920898 63.874817,296.078583 66.780602,297.325348 
	C99.998367,311.578369 133.188599,325.895721 166.429001,340.095673 
	C172.902130,342.860962 172.999420,342.668152 175.861374,336.069733 
	C188.651825,306.580658 201.346695,277.049500 214.310684,247.636963 
	C216.352539,243.004471 215.878967,239.913132 212.382431,236.168655 
	C187.022308,209.010345 161.875290,181.653000 136.675705,154.344910 
	C134.642548,152.141647 132.688965,149.862411 130.756592,147.569443 
	C129.204727,145.727982 127.612221,143.666382 129.950531,141.471939 
	C132.193665,139.366821 134.006821,141.315048 135.526108,142.762863 
	C142.159653,149.084320 148.773468,155.429565 155.267395,161.893829 
	C175.699539,182.232712 196.069305,202.634201 216.475052,222.999619 
	C221.710617,228.224838 222.605865,228.013229 225.585938,221.134705 
	C231.478561,207.533447 237.455597,193.968292 243.259506,180.329376 
	C244.847122,176.598526 246.903397,174.694824 251.373322,174.468582 
	C271.196350,173.465179 291.020630,174.084686 310.841644,173.931259 
	C328.172333,173.797104 345.505737,173.988678 362.835876,173.821350 
	C366.736572,173.783707 368.517090,175.057343 370.086884,178.815323 
	C384.431091,213.153763 399.078125,247.365723 414.026276,281.516357 
	C408.380188,264.462921 412.177673,247.120712 412.352173,229.968155 
	C412.456879,219.677139 412.959778,209.338150 413.482697,199.025940 
	C414.688568,175.245972 415.015076,151.422699 415.851013,127.622360 
	C417.113403,91.680382 418.490479,55.742382 419.870209,19.804667 
	C419.991211,16.652735 420.441193,13.508970 420.835876,10.373690 
	C421.070007,8.513764 422.143738,7.253894 424.116638,7.253180 
	C426.053833,7.252479 427.175903,8.324443 427.347382,10.320323 
	C427.575317,12.973092 428.047516,15.622828 428.050903,18.274330 
	C428.155304,99.933037 428.266846,181.591843 428.196259,263.250488 
	C428.189728,270.814575 424.609589,277.711853 422.151184,284.755768 
	C421.331390,287.104706 419.336823,287.943481 415.887360,286.787872 
	C438.639252,340.421661 461.022614,393.186707 483.928467,447.183441 
	C476.512360,447.183441 470.284027,447.342041 464.070709,447.105957 
	C461.559113,447.010498 461.449402,444.303650 460.868652,442.519531 
	C453.861267,420.992096 446.943268,399.435608 439.987427,377.891388 
	C439.171997,375.365784 438.269806,372.868134 437.166290,369.654053 
	C434.145691,374.721039 433.114227,379.896362 431.515442,384.779633 
	C425.402863,403.450043 419.390289,422.157288 413.714081,440.963531 
	C412.303253,445.637817 410.061340,447.498749 405.277527,447.270782 
	C399.625183,447.001404 393.945709,447.132660 388.283966,447.296387 
	C385.238129,447.384521 383.399323,446.407654 382.179474,443.428162 
	C368.740509,410.603943 355.152557,377.840698 341.685120,345.028046 
	C332.138031,321.767151 322.723785,298.451752 313.209930,275.177155 
	C312.594604,273.671875 312.002472,272.048584 310.422699,271.125916 
	C308.334351,271.446960 308.069550,273.333588 307.442108,274.761444 
	C304.025238,282.537079 300.821075,290.408203 297.292419,298.131683 
	C295.799469,301.399445 296.434326,303.615265 298.943359,306.061279 
	C307.744568,314.641357 317.258453,322.714691 321.567047,334.831757 
	C322.571960,337.657837 325.688019,340.861847 322.563141,343.448181 
	C319.662872,345.848663 316.667480,342.791168 313.979584,341.346222 
	C306.554840,337.354950 300.296295,331.910919 294.733978,325.612244 
	C292.990753,323.638275 291.069183,321.821747 289.326965,320.033447 
	C287.227234,320.565094 286.939880,322.218933 286.386475,323.507874 
	C278.830322,341.106995 271.424072,358.771179 263.744232,376.315796 
	C262.161438,379.931732 262.929291,381.826996 266.349182,383.284485 
	C272.324829,385.831177 278.230225,388.542236 284.193024,391.119873 
	C291.969635,394.481598 298.556122,399.499634 304.382965,405.560822 
	C305.944977,407.185608 308.226196,408.834961 306.601074,411.516602 
	C305.124207,413.953552 302.546692,413.363678 300.241150,413.085022 
	C288.839935,411.706970 278.304047,407.740479 268.222748,402.386139 
	C265.281677,400.824097 262.246979,399.437378 259.246735,397.987885 
	C256.999481,396.902130 254.880264,396.928223 253.776764,399.479309 
	C247.179703,414.730835 240.667572,430.019104 234.278046,444.942169 
	C235.778748,447.337585 237.611450,446.779083 239.181137,446.815674 
	C254.002869,447.161407 268.826050,447.444672 283.648529,447.758209 
	C292.008209,447.935059 299.469116,451.414215 307.092987,454.247925 
	C308.685242,454.839722 310.052917,456.031494 309.862183,457.990784 
	C309.680969,459.851990 308.379303,460.994476 306.640289,461.389526 
	C299.840637,462.934387 293.128571,465.479828 286.086121,465.116333 
	C267.799652,464.172455 249.530365,462.884247 231.260742,461.638000 
	C228.694443,461.462952 226.907150,461.687103 225.724823,464.470673 
	C211.335632,498.347504 196.838928,532.178650 182.380417,566.026123 
	C182.064163,566.766418 181.868774,567.558472 181.347778,569.147461 
	C189.369003,565.880676 196.029312,561.571167 202.927963,557.780823 
	C234.904190,540.211975 266.869202,522.620728 298.704895,504.799438 
	C306.222809,500.590973 314.493439,499.804993 322.565216,497.979858 
	C324.660461,497.506104 326.579193,498.185638 327.551056,500.351685 
	C328.499542,502.465637 327.056396,503.762024 325.808411,505.129486 
	C318.736206,512.878906 310.139069,518.427124 300.803345,523.090210 
	C261.758118,542.592773 222.862976,562.398010 183.712479,581.685669 
	C176.413773,585.281433 170.694138,589.434631 168.647018,597.541931 
	C167.653397,601.476929 165.146576,602.620544 161.237045,602.446655 
	C148.539917,601.881775 136.781708,604.479858 125.530861,611.072205 
	C113.484726,618.130676 100.633263,623.830322 88.029770,629.908386 
	C85.633827,631.063843 82.297409,634.021912 80.217255,630.009583 
	C78.199951,626.118591 81.821449,624.543213 84.637329,623.008118 
	C94.730270,617.505920 104.821465,612.000427 114.897476,606.467346 
	C116.181145,605.762329 117.371391,604.887207 119.035011,603.813354 
	C116.438522,601.490967 113.683403,602.588257 110.775742,602.255615 
z"/>
<path fill="#000000" opacity="1.000000" stroke="none" 
	d="
M743.162720,795.836548 
	C732.395996,784.962952 721.877380,774.341309 710.516846,762.869507 
	C706.733337,772.969849 703.360046,781.934937 700.015625,790.910706 
	C690.364685,816.812317 680.665955,842.696411 671.139282,868.643677 
	C669.535278,873.012390 667.224426,874.496399 662.348694,874.605408 
	C630.020752,875.327942 597.704712,874.192505 565.386169,874.437134 
	C559.929871,874.478394 557.304749,872.722229 555.164856,867.443970 
	C529.199951,803.399780 502.903351,739.490173 476.723999,675.532837 
	C458.493073,630.993958 440.341766,586.422363 422.045013,541.910583 
	C420.588226,538.366577 421.052551,536.260498 424.290771,534.041565 
	C437.966492,524.670532 434.239197,523.974060 448.146210,533.529602 
	C464.619110,544.848206 480.660309,556.794861 496.901184,568.451843 
	C498.358612,569.497925 499.907959,570.415955 501.611053,571.520813 
	C502.401642,568.684143 501.104553,566.605530 500.430695,564.495239 
	C493.745667,543.561096 487.109650,522.609192 480.129669,501.772888 
	C478.582550,497.154388 479.410187,494.238617 483.337006,491.612335 
	C488.143005,488.398102 492.245056,484.169098 498.231567,480.887207 
	C536.588623,571.107361 574.773193,660.921814 613.327576,751.606140 
	C617.408142,743.682373 619.487976,736.124695 622.291870,728.874329 
	C626.735413,717.384155 630.710693,705.713074 635.139282,694.216919 
	C636.720825,690.111206 636.089050,687.344727 632.881287,684.135071 
	C609.086792,660.326599 585.497070,636.313293 561.859375,612.348328 
	C555.259399,605.656921 552.492126,596.721680 548.188843,588.690735 
	C547.423157,587.261658 547.722168,585.690491 549.027344,584.598877 
	C550.806274,583.111145 552.928406,583.335327 554.652405,584.404602 
	C561.839233,588.862183 569.557922,592.502197 575.422668,598.947510 
	C596.503662,622.115356 617.706360,645.172424 638.875122,668.260315 
	C639.966858,669.451050 640.828003,670.956482 643.431396,671.733643 
	C656.773438,635.668091 670.086426,599.681030 683.334656,563.869080 
	C681.859863,561.427856 679.536743,561.199829 677.595398,560.471619 
	C645.942200,548.598511 614.296875,536.702942 582.575623,525.013733 
	C574.061096,521.876160 567.258362,516.372986 560.496704,510.680298 
	C559.031860,509.447144 557.824585,508.014008 558.737244,505.938324 
	C559.606995,503.960266 561.405212,503.544189 563.336792,503.680206 
	C571.666931,504.266693 579.864319,505.409271 587.670837,508.679626 
	C618.856934,521.744324 650.069092,534.746765 681.284729,547.740967 
	C687.943604,550.512878 688.150085,550.449402 690.638855,543.849182 
	C697.747437,524.997253 704.868591,506.148926 711.758972,487.216980 
	C713.226196,483.185944 715.240417,481.563690 719.700684,481.610840 
	C747.526306,481.904968 775.351440,481.585938 803.172729,480.929596 
	C812.460144,480.710480 814.252136,483.161194 811.029114,491.920410 
	C802.231140,515.830933 793.282959,539.686157 784.401184,563.565918 
	C782.137390,569.652466 780.149231,575.857056 777.567383,581.804749 
	C775.673462,586.167664 777.212158,588.053162 781.174683,589.609131 
	C790.165649,593.139526 799.048279,596.946655 807.963684,600.668396 
	C810.268372,601.630493 812.543152,602.667053 814.810120,603.715881 
	C816.999390,604.728943 819.347778,605.913635 818.235718,608.867798 
	C817.007874,612.129578 814.316711,611.269226 811.884888,610.446045 
	C809.206055,609.539185 806.557434,608.542114 803.902588,607.565552 
	C793.765076,603.836975 783.630310,600.100952 773.381592,596.326050 
	C770.303711,600.516541 769.095642,605.057312 767.494690,609.339783 
	C750.468018,654.885132 733.609680,700.493469 716.534546,746.020569 
	C714.998108,750.117126 715.864136,752.747925 718.682068,755.786194 
	C733.637512,771.910706 748.414001,788.201233 763.250916,804.435608 
	C763.925354,805.173523 764.631836,805.888977 765.241882,806.677795 
	C766.957886,808.896484 769.483826,811.244019 766.528992,813.999390 
	C763.798706,816.545654 761.565491,814.163757 759.684265,812.329102 
	C754.198425,806.978394 748.827026,801.510498 743.162720,795.836548 
z"/>
<path fill="#000000" opacity="1.000000" stroke="none" 
	d="
M493.000000,451.930176 
	C503.039124,452.300690 512.688293,450.850525 521.975830,452.984070 
	C522.743225,456.312256 520.479980,457.040863 518.986633,458.146667 
	C504.533630,468.848999 490.130768,479.623352 475.500854,490.079529 
	C471.955719,492.613281 471.582947,494.939758 472.877197,498.825653 
	C478.556396,515.877380 483.935303,533.029114 489.420074,550.145569 
	C489.971558,551.866577 490.829590,553.578735 489.631714,555.504944 
	C486.846863,556.166870 485.043976,554.265320 483.075531,552.849426 
	C469.284393,542.929260 455.403107,533.129700 441.775543,522.989441 
	C437.471008,519.786438 434.240784,519.859070 429.958099,523.087952 
	C416.130890,533.513062 402.033447,543.580505 387.998993,553.728943 
	C386.334076,554.932861 384.866486,556.875610 382.302887,556.166748 
	C380.798248,554.184265 381.940674,552.335144 382.528320,550.497009 
	C388.050812,533.222229 393.487762,515.918884 399.202240,498.707672 
	C400.566925,494.597351 399.926727,492.159698 396.243713,489.565857 
	C381.947906,479.497559 367.883453,469.099640 353.792419,458.743408 
	C352.161621,457.544861 349.186676,456.646118 349.958435,454.135223 
	C350.773956,451.482025 353.874390,452.010193 356.070709,451.997681 
	C373.395355,451.898651 390.722809,451.794098 408.044708,452.031891 
	C412.810730,452.097321 415.115479,450.611023 416.529205,445.899323 
	C421.408478,429.637360 426.674805,413.488831 432.022400,397.373016 
	C432.822021,394.963257 432.432678,390.741974 436.117767,390.870972 
	C439.155548,390.977295 439.264465,394.801117 440.052155,397.203064 
	C445.445618,413.649872 450.840454,430.099365 455.898529,446.650787 
	C457.260681,451.108093 459.211182,452.650787 464.024750,452.350861 
	C473.488464,451.761139 483.005188,452.022186 493.000000,451.930176 
z"/>
<path fill="#000000" opacity="1.000000" stroke="none" 
	d="
M334.850464,769.729614 
	C316.124847,821.256775 297.549805,872.424255 278.957245,923.585449 
	C278.275787,925.460571 277.445221,927.283203 276.644257,929.112854 
	C275.640625,931.405396 274.275146,933.379456 271.372345,932.348816 
	C268.570282,931.353943 268.384277,929.021667 269.122009,926.559204 
	C270.697906,921.299072 272.294342,916.043762 273.981049,910.818359 
	C298.265869,835.582397 322.568054,760.352051 346.862549,685.119202 
	C348.907990,678.785034 351.285706,672.531006 352.879456,666.084106 
	C355.628510,654.963562 361.560944,645.641357 368.343018,636.714783 
	C369.969757,634.573608 371.744171,632.179932 374.867615,633.288879 
	C377.907745,634.368347 377.283569,637.286560 377.288940,639.743591 
	C377.321686,654.725342 371.997955,668.389526 366.937622,682.138794 
	C356.242706,711.197632 345.639099,740.290161 334.850464,769.729614 
z"/>
<path fill="#000000" opacity="1.000000" stroke="none" 
	d="
M602.652832,376.754730 
	C591.560425,381.825043 580.614868,386.354004 570.111938,391.745239 
	C561.523804,396.153625 552.302063,396.891266 543.118347,398.230591 
	C540.710205,398.581818 538.390503,398.318024 537.446106,395.440308 
	C536.566711,392.760620 538.492188,391.670074 540.110229,390.155853 
	C551.393311,379.596863 565.836914,375.027344 579.629822,369.317963 
	C646.997131,341.432434 714.420410,313.681976 781.830200,285.899048 
	C783.981201,285.012482 786.209900,284.316284 788.385620,283.487152 
	C790.671814,282.616028 792.866455,282.660217 793.897095,285.135529 
	C795.015869,287.822815 793.357849,289.584442 791.034973,290.669647 
	C786.963684,292.571564 782.836365,294.353088 778.749207,296.221619 
	C720.161499,323.006195 661.576599,349.796936 602.652832,376.754730 
z"/>
<path fill="#000000" opacity="1.000000" stroke="none" 
	d="
M259.174622,658.199036 
	C278.545258,632.723511 297.836700,607.633301 316.763855,582.271240 
	C322.301331,574.851196 329.375549,569.556641 336.897369,564.600891 
	C338.684021,563.423767 340.645691,561.887329 342.809296,563.570068 
	C345.099762,565.351379 344.293549,567.733398 343.453217,569.974548 
	C339.600830,580.249084 333.352020,588.982117 326.421783,597.396790 
	C278.568817,655.499695 230.825638,713.692932 183.055359,771.863953 
	C180.836502,774.565918 178.738510,777.367493 176.504883,780.056763 
	C174.683441,782.249817 172.621658,784.982300 169.492706,782.779236 
	C166.118439,780.403381 168.468079,777.731995 170.160080,775.500061 
	C185.251816,755.592468 200.402405,735.729431 215.506775,715.831421 
	C230.007874,696.728027 244.474655,677.598633 259.174622,658.199036 
z"/>
<path fill="#000000" opacity="1.000000" stroke="none" 
	d="
M536.661743,297.681183 
	C583.111633,243.578659 629.318909,189.736359 675.536804,135.903152 
	C678.898743,131.987198 682.269653,128.074463 685.771362,124.284912 
	C687.377991,122.546242 689.450439,120.882584 691.871887,122.688774 
	C694.531616,124.672668 692.909912,126.981453 691.505188,128.785233 
	C682.400940,140.475906 673.234375,152.118668 664.018127,163.721420 
	C622.170715,216.404816 580.259033,269.037231 538.486816,321.780121 
	C532.933105,328.792328 525.491272,333.097931 518.165100,337.678284 
	C516.557312,338.683533 514.702271,339.159241 513.129150,337.519867 
	C511.587830,335.913635 512.284363,334.112213 512.927368,332.371307 
	C516.558044,322.540771 522.248230,314.000793 529.232666,306.257874 
	C531.686096,303.537964 534.028625,300.717957 536.661743,297.681183 
z"/>
<path fill="#000000" opacity="1.000000" stroke="none" 
	d="
M658.066406,445.679718 
	C713.841553,447.128601 769.125977,448.566803 824.409546,450.035736 
	C829.568542,450.172821 834.723694,450.480103 839.878113,450.755707 
	C842.649109,450.903809 845.700073,451.303741 845.560181,454.872437 
	C845.430969,458.167938 842.488892,458.286041 839.898560,458.323853 
	C824.905640,458.542816 809.913330,458.849182 794.919617,458.969208 
	C731.432617,459.477478 667.942322,459.724396 604.460388,460.590088 
	C592.765259,460.749573 581.572021,460.122589 570.763367,455.537659 
	C568.770813,454.692413 566.211914,454.193665 566.251648,451.541687 
	C566.293945,448.721771 568.860901,448.064819 571.100098,447.257874 
	C585.322876,442.132080 600.046692,443.725677 614.648132,444.078705 
	C628.961731,444.424805 643.266724,445.129913 658.066406,445.679718 
z"/>
<path fill="#000000" opacity="1.000000" stroke="none" 
	d="
M479.377441,296.259705 
	C476.771973,305.625641 474.197968,314.581573 471.728973,323.566315 
	C469.467163,331.797241 464.250671,338.378510 459.728668,345.346283 
	C458.756042,346.844971 457.230865,347.625946 455.398773,346.990936 
	C453.609406,346.370758 452.779114,344.845947 452.793427,343.089478 
	C452.851624,335.954559 452.092560,328.778748 454.358643,321.771851 
	C479.819153,243.045517 505.232269,164.303864 530.702942,85.580841 
	C531.629517,82.717155 532.200012,78.570786 536.522522,79.689034 
	C540.192566,80.638489 539.262573,84.033470 538.466431,86.853050 
	C518.793945,156.522263 499.124603,226.192352 479.377441,296.259705 
z"/>
<path fill="#000000" opacity="1.000000" stroke="none" 
	d="
M433.812805,731.844299 
	C432.873505,715.425354 432.074402,699.473938 430.991974,683.541748 
	C430.376160,674.477173 433.184174,666.144470 435.726990,657.719360 
	C436.250183,655.985657 437.444183,654.759033 439.389160,654.956055 
	C441.493408,655.169250 442.451782,656.799866 443.066498,658.603333 
	C445.922882,666.983459 448.010559,675.525330 448.193146,684.432129 
	C448.568481,702.743225 448.957611,721.054321 449.251923,739.366821 
	C449.671997,765.507324 449.696777,791.658325 450.467682,817.787903 
	C451.390839,849.077515 452.053864,880.367798 452.430542,911.666870 
	C452.502472,917.644043 453.712158,923.607422 452.664185,929.598022 
	C452.287689,931.750183 452.023499,934.179932 449.070953,934.134277 
	C446.220062,934.090271 445.670532,931.822632 445.481049,929.579163 
	C444.907471,922.788086 444.312225,915.996033 443.916199,909.193298 
	C441.905334,874.652344 439.917175,840.110046 437.996979,805.563965 
	C436.805908,784.136292 435.762665,762.700439 434.618439,741.270081 
	C434.458862,738.281250 434.100647,735.303040 433.812805,731.844299 
z"/>
</svg>