<svg version="1.1" id="Layer_1" xmlns="http://www.w3.org/2000/svg" xmlns:xlink="http://www.w3.org/1999/xlink" x="0px" y="0px"
	 width="100%" viewBox="0 0 1140 1342" enable-background="new 0 0 1140 1342" xml:space="preserve">
<path fill="#FEFEFE" opacity="1.000000" stroke="none" 
	d="
M1129.304688,1342.601562 
	C754.545471,1343.000000 380.090881,1342.989990 5.636387,1343.124390 
	C1.340798,1343.125977 0.904951,1341.955811 0.905810,1338.137451 
	C1.005693,894.024719 1.006458,449.911957 0.896622,5.799227 
	C0.895645,1.849485 1.539748,0.881812 5.699685,0.883212 
	C379.820679,1.009133 753.941711,1.000000 1128.531372,1.000000 
	C1130.336304,2.461148 1130.518433,4.280868 1130.587158,6.132606 
	C1130.667480,8.297992 1130.636108,10.464587 1130.636230,12.630667 
	C1130.638550,452.208984 1130.639404,891.787292 1130.607300,1331.365601 
	C1130.607056,1334.987793 1131.276367,1338.716064 1129.304688,1342.601562 
z"/>
<path fill="#F7F7F7" opacity="1.000000" stroke="none" 
	d="
M1129.428467,1343.000000 
	C1129.000000,895.979126 1129.000000,448.958221 1129.000000,1.468657 
	C1130.714355,1.000000 1132.428711,1.000000 1134.571533,1.000000 
	C1136.336670,2.461545 1136.515991,4.281515 1136.581665,6.133134 
	C1136.664185,8.464860 1136.628662,10.797739 1136.628662,13.130109 
	C1136.630249,188.402985 1136.386597,363.676483 1136.854858,538.948120 
	C1136.938965,570.410339 1138.049683,601.902039 1137.516479,633.363098 
	C1135.506104,751.971313 1136.893433,870.583801 1136.894287,989.191956 
	C1136.894531,1018.481995 1137.379150,1047.803833 1137.617310,1077.111328 
	C1137.706665,1088.100220 1135.984009,1099.040527 1136.632202,1110.048218 
	C1138.543213,1142.504150 1138.235962,1175.018066 1137.387817,1207.457520 
	C1136.268555,1250.270874 1137.140137,1293.068237 1136.617188,1335.868164 
	C1136.590942,1338.023804 1136.744385,1340.221680 1135.303345,1342.603027 
	C1133.285645,1343.000000 1131.571289,1343.000000 1129.428467,1343.000000 
z"/>
<path fill="#E9E9E9" opacity="1.000000" stroke="none" 
	d="
M1135.498291,1343.000000 
	C1135.000732,895.976685 1135.001587,448.953339 1135.001221,1.465011 
	C1140.122681,-0.126464 1141.142456,1.863262 1141.140625,6.995646 
	C1140.988525,450.666077 1140.992432,894.336609 1141.112549,1338.007080 
	C1141.113647,1342.250610 1140.211670,1343.888306 1135.498291,1343.000000 
z"/>
<path fill="#010101" opacity="1.000000" stroke="none" 
	d="
M610.243164,846.755737 
	C591.263794,800.261169 572.472229,754.105164 553.492371,708.026672 
	C552.144409,704.754150 552.361572,703.098145 555.385864,701.248291 
	C559.494873,698.734863 563.531555,695.998962 567.183838,692.873108 
	C570.633362,689.920593 573.486450,690.348328 576.894836,692.738831 
	C584.250671,697.897888 591.859924,702.698303 599.171021,707.917847 
	C617.871399,721.268433 636.463562,734.770508 655.105103,748.203491 
	C656.569824,749.258972 658.081848,750.248779 660.095276,751.627625 
	C659.725769,746.502441 657.838318,742.444092 656.513733,738.281433 
	C647.650208,710.427002 638.737183,682.587769 629.651855,654.805176 
	C628.566467,651.486023 628.666809,649.068970 631.462646,646.916138 
	C638.431030,641.550598 645.381897,636.162292 652.741638,630.472412 
	C703.408813,749.576538 753.865967,868.186951 804.349548,986.859558 
	C805.804138,986.218323 805.770081,984.802551 806.191162,983.659302 
	C815.661560,957.945251 825.051208,932.200867 834.682190,906.547119 
	C836.075073,902.836853 835.305542,900.662537 832.618835,897.961121 
	C802.299255,867.474792 772.203064,836.765930 741.817932,806.345459 
	C735.611450,800.131775 730.368103,793.504761 726.714661,785.524719 
	C724.502747,780.693298 721.805481,776.086243 719.430908,771.326111 
	C718.570068,769.600403 718.565613,767.823120 719.993835,766.220398 
	C721.476074,764.557251 723.281860,764.847290 725.074768,765.289795 
	C726.029480,765.525513 726.982666,765.955505 727.809143,766.493530 
	C737.939026,773.086914 748.511536,778.791504 756.855347,788.122986 
	C784.176575,818.678467 812.053467,848.737366 839.739929,878.965942 
	C840.830200,880.156128 841.628662,881.726013 843.719849,882.378296 
	C849.826782,865.902344 855.923401,849.458374 862.017151,833.013367 
	C873.329224,802.485962 884.572327,771.932678 896.033997,741.461548 
	C897.498718,737.567322 896.787598,736.255493 892.865906,734.811829 
	C849.673828,718.911621 806.591309,702.713867 763.419617,686.757812 
	C752.195190,682.609192 743.381042,675.063721 734.460876,667.560669 
	C733.088135,666.406006 732.149292,665.106689 732.851135,663.240601 
	C733.644348,661.131714 735.362976,659.814941 737.475342,660.148804 
	C747.307312,661.702454 757.486145,661.659851 766.836243,665.552368 
	C809.951050,683.501831 853.018066,701.565979 896.098450,719.598145 
	C902.515686,722.284180 902.623535,722.350586 905.179565,715.604248 
	C915.183228,689.200623 925.156250,662.785034 934.994446,636.319580 
	C936.186218,633.113586 937.529480,631.720764 941.289185,631.707703 
	C980.119324,631.572815 1018.948547,631.190002 1057.778076,630.874268 
	C1064.538330,630.819275 1066.578857,633.285767 1064.235352,639.787292 
	C1055.169067,664.941101 1045.911743,690.026245 1036.658936,715.112305 
	C1030.682129,731.316284 1024.737671,747.535461 1018.454590,763.621216 
	C1016.660828,768.213623 1017.045593,770.326477 1022.084839,772.278381 
	C1037.268188,778.159485 1052.204102,784.680359 1067.227905,790.972168 
	C1068.605103,791.548950 1069.953491,792.214417 1071.257446,792.942017 
	C1073.190186,794.020508 1073.523315,795.850342 1072.831543,797.688538 
	C1072.112671,799.598389 1070.492676,800.530273 1068.413330,799.948303 
	C1065.535889,799.142883 1062.660278,798.296509 1059.854492,797.274353 
	C1045.957764,792.211426 1032.024048,787.240356 1018.239502,781.885986 
	C1014.124084,780.287415 1012.426086,780.749634 1010.797913,785.150757 
	C995.354004,826.898682 979.651367,868.550781 964.042053,910.237549 
	C955.421875,933.258606 946.914734,956.322449 938.159973,979.292114 
	C936.722351,983.064026 937.174133,985.506836 939.982971,988.530273 
	C959.716248,1009.772095 979.234558,1031.213623 998.805786,1052.605835 
	C1000.828247,1054.816528 1002.764282,1057.107178 1004.710022,1059.386719 
	C1006.509766,1061.495361 1007.316650,1063.841919 1005.126526,1066.057007 
	C1002.789978,1068.420044 1000.322693,1067.103516 998.499573,1065.332153 
	C990.494202,1057.553833 982.662292,1049.597412 974.721741,1041.751831 
	C960.263977,1027.466919 945.773804,1013.214844 931.043762,998.699341 
	C928.083069,1006.728394 925.054382,1015.029419 921.964111,1023.307434 
	C907.675293,1061.583984 893.300232,1099.828735 879.150696,1138.156616 
	C877.225037,1143.373047 874.696289,1145.365112 868.748169,1145.307007 
	C826.587524,1144.894775 784.421265,1144.817871 742.258850,1145.038086 
	C734.726746,1145.077393 731.126770,1142.662109 728.197266,1135.443237 
	C689.156982,1039.239624 649.721924,943.196350 610.243164,846.755737 
z"/>
<path fill="#010101" opacity="1.000000" stroke="none" 
	d="
M227.710983,237.288956 
	C249.024719,258.639343 270.088867,279.739319 291.417938,301.104675 
	C300.077362,281.200256 308.396484,261.703033 317.031769,242.346817 
	C324.052582,226.609436 319.942535,229.082535 337.066437,228.948685 
	C383.061432,228.589142 429.060303,228.729156 475.055481,228.382599 
	C480.435089,228.342072 482.688324,229.681595 484.817627,234.977585 
	C495.226898,260.867645 506.345703,286.473206 517.270508,312.155151 
	C555.315613,401.591614 593.385803,491.017395 631.429688,580.454407 
	C631.996277,581.786682 632.993835,583.018188 632.658020,585.096069 
	C624.906738,585.096069 617.115356,584.951843 609.333618,585.163940 
	C606.011841,585.254395 606.141357,582.827820 605.529907,580.942444 
	C595.691956,550.607056 585.903015,520.255798 576.083618,489.914337 
	C575.171326,487.095459 574.527893,484.153809 572.442444,481.133911 
	C565.920776,501.174744 559.509338,520.766968 553.173706,540.383667 
	C548.783508,553.976562 544.392029,567.571411 540.265869,581.245178 
	C539.551086,583.613892 538.705994,584.571655 536.320496,584.585022 
	C526.322388,584.641052 516.322937,584.718201 506.328217,584.959717 
	C504.022430,585.015381 503.136169,583.946472 502.368042,582.080139 
	C484.602081,538.914612 466.772614,495.775238 449.016846,452.605530 
	C434.996643,418.518005 421.059143,384.396484 407.053223,350.212738 
	C405.380280,350.947205 405.339355,352.487946 404.819550,353.686646 
	C399.266968,366.490906 393.805542,379.335144 388.169952,392.102570 
	C386.863708,395.061890 386.898315,397.139771 389.535583,399.487091 
	C394.009338,403.468994 397.800293,408.236267 402.374603,412.083191 
	C412.011932,420.187988 417.396576,430.972168 422.321838,442.118805 
	C423.378387,444.509796 425.252014,447.360840 422.772583,449.479187 
	C420.405182,451.501801 417.738159,449.404358 415.413544,448.218445 
	C403.381744,442.080170 393.188629,433.708893 384.487213,423.353333 
	C378.108124,415.761597 377.888641,415.932800 374.070953,424.835785 
	C363.987823,448.350037 353.985382,471.899384 343.758240,495.350800 
	C342.288239,498.721497 342.741394,500.194000 346.155670,501.567139 
	C353.707367,504.604248 361.046356,508.167969 368.583679,511.243439 
	C380.356079,516.046936 390.343475,523.363037 399.132690,532.407166 
	C400.768921,534.090881 403.317780,535.790710 401.419006,538.753601 
	C399.772644,541.322693 397.345337,540.577698 394.760315,540.369385 
	C374.051117,538.701233 356.497681,528.547302 338.543549,519.564697 
	C334.887390,517.735413 333.662598,518.328003 332.159729,521.914612 
	C323.941284,541.528442 315.479340,561.040100 307.112488,580.591797 
	C306.407349,582.239563 305.786774,583.923462 304.621063,586.868652 
	C317.328430,586.868652 329.265167,586.838074 341.201599,586.880066 
	C348.367279,586.905273 355.548950,587.392151 362.694489,587.056030 
	C376.014557,586.429565 388.337463,590.102966 400.468567,594.914978 
	C402.909149,595.882996 406.050171,596.582642 405.613953,600.016785 
	C405.211853,603.182312 402.202362,603.476440 399.604889,604.319214 
	C380.968170,610.366211 362.015625,607.580811 343.128815,606.541748 
	C328.988617,605.763916 314.854004,604.879028 300.721130,603.976013 
	C298.402496,603.827881 296.870300,603.965332 295.727081,606.651306 
	C276.209961,652.507568 256.544861,698.300781 236.923660,744.112793 
	C236.479095,745.150696 236.166412,746.245117 235.478302,748.209045 
	C237.685898,747.100098 239.218475,746.394043 240.691864,745.580811 
	C291.510468,717.528442 342.356293,689.525024 393.108734,661.353455 
	C402.871490,655.934387 413.697815,655.173218 424.244781,653.064453 
	C426.256378,652.662292 427.891998,653.539490 428.790161,655.368164 
	C429.725372,657.272400 429.050354,658.953552 427.554413,660.296753 
	C419.520844,667.510498 411.969025,675.214050 402.063141,680.173279 
	C347.493958,707.492676 293.109802,735.183472 238.433365,762.285217 
	C229.875748,766.526978 223.309631,771.513000 221.041061,780.920532 
	C219.521637,787.221436 215.746521,789.189941 209.576447,788.542786 
	C193.481064,786.854492 179.082428,791.392456 164.994934,799.303650 
	C148.058151,808.815002 130.283340,816.839172 112.819595,825.401550 
	C110.332016,826.621155 107.079391,829.234497 105.150055,825.065002 
	C103.289421,821.043884 106.469666,819.257751 109.622971,817.564697 
	C125.595596,808.988586 141.502716,800.290344 157.419373,791.610291 
	C158.801422,790.856506 160.085724,789.923523 161.180466,788.079163 
	C156.109375,788.079163 151.036972,788.154053 145.967407,788.065857 
	C126.979218,787.735352 107.972198,788.686768 89.001198,787.280640 
	C83.679832,786.886169 82.643929,785.362427 84.445351,780.213806 
	C85.978653,775.831543 87.790627,771.539307 89.635170,767.274597 
	C113.708107,711.615906 137.776398,655.955139 161.975159,600.351196 
	C163.596542,596.625549 163.166046,595.650513 159.025040,595.443848 
	C125.076515,593.749817 91.136559,591.883057 57.195759,590.036316 
	C53.039318,589.810181 48.890427,589.424561 44.743526,589.051758 
	C42.361084,588.837524 40.489738,587.874207 40.502857,585.120361 
	C40.516121,582.336792 41.955578,580.773071 44.826046,580.785645 
	C48.154984,580.800293 51.484123,580.851746 54.812389,580.923645 
	C91.632263,581.718994 128.452682,582.492188 165.270264,583.382629 
	C167.968704,583.447815 169.419189,582.841248 170.559631,580.208679 
	C186.938538,542.399841 203.386185,504.620361 219.983627,466.907074 
	C221.694061,463.020569 218.965912,462.771271 216.893402,461.783386 
	C191.084198,449.480927 165.258698,437.212677 139.439987,424.930115 
	C118.877907,415.148254 98.314087,405.370026 77.767410,395.555908 
	C75.670509,394.554352 73.683212,393.322479 71.650139,392.188354 
	C69.676559,391.087494 67.742386,389.877136 68.991432,387.160431 
	C70.219803,384.488617 72.540962,384.329407 74.931915,385.167450 
	C78.694786,386.486420 82.445206,387.870178 86.105827,389.447174 
	C131.897400,409.174072 177.679794,428.922363 223.429474,448.746124 
	C225.992691,449.856812 227.167496,450.073273 228.501678,446.958099 
	C246.685226,404.501923 265.010925,362.106384 283.441956,319.756989 
	C284.773499,316.697388 284.475433,314.869629 282.204529,312.422546 
	C246.953400,274.436432 211.808334,236.351898 176.656815,198.273422 
	C174.624634,196.072006 172.834534,193.644791 170.772629,191.473785 
	C168.875824,189.476578 168.322296,187.514709 170.331345,185.373306 
	C172.504929,183.056534 174.120316,184.753494 175.758896,186.240540 
	C191.069153,200.134918 205.302628,215.128235 220.034592,229.612671 
	C222.530838,232.066956 224.986801,234.562210 227.710983,237.288956 
z"/>
<path fill="#020202" opacity="1.000000" stroke="none" 
	d="
M576.822266,522.182983 
	C584.069763,544.719177 591.259033,566.862244 598.241638,589.070251 
	C599.274597,592.355591 600.799683,593.297485 604.203064,593.265320 
	C628.029419,593.039429 651.858154,593.056152 675.686096,593.003845 
	C677.185303,593.000549 678.686218,593.037842 680.183411,593.114197 
	C681.821106,593.197693 683.852844,592.949524 684.404724,594.938232 
	C684.909180,596.756470 682.958069,597.348755 681.826782,598.185120 
	C671.915771,605.512634 661.950623,612.766846 652.039551,620.094299 
	C641.593201,627.817505 631.251465,635.684021 620.724976,643.295532 
	C617.836731,645.384033 617.263794,647.344482 618.390137,650.758118 
	C625.944458,673.653992 633.296692,696.616699 640.641724,719.580994 
	C641.434509,722.059448 642.713318,724.531738 641.863708,727.833008 
	C638.883789,727.186951 636.584106,725.443542 634.234375,723.773193 
	C614.687866,709.878601 595.602600,695.342041 575.747131,681.872864 
	C572.540894,679.697937 570.403015,679.435486 567.082947,681.893494 
	C548.075012,695.966064 528.852295,709.748535 509.702332,723.629333 
	C508.623474,724.411438 507.604797,725.300720 506.450867,725.949280 
	C504.821014,726.865417 503.265137,729.318909 501.288330,727.711792 
	C499.633636,726.366516 501.323029,724.307739 501.852448,722.657104 
	C509.419312,699.065430 516.902466,675.445312 524.737183,651.942505 
	C526.388123,646.989868 525.382935,644.371277 521.106750,641.353333 
	C501.784668,627.716370 482.734802,613.692444 463.659393,599.708984 
	C461.893311,598.414368 458.504333,597.544250 459.105164,595.048401 
	C459.843292,591.982178 463.318451,593.121765 465.621674,593.111267 
	C490.115601,592.999634 514.610718,592.926697 539.103821,593.087830 
	C542.900574,593.112793 544.486145,591.995667 545.637085,588.323425 
	C553.196228,564.205750 561.027893,540.173462 568.813477,516.127136 
	C569.335388,514.515320 569.150757,511.994629 571.603455,512.025146 
	C573.574768,512.049622 573.807922,514.260193 574.426147,515.739990 
	C575.258423,517.732117 575.946899,519.784363 576.822266,522.182983 
z"/>
<path fill="#050505" opacity="1.000000" stroke="none" 
	d="
M451.651672,909.565308 
	C457.045197,892.917419 462.227264,876.621216 467.542145,860.368347 
	C471.092377,849.511780 479.195557,841.493774 485.446838,832.330261 
	C486.806122,830.337708 489.020233,829.090881 491.556671,830.182983 
	C494.140533,831.295471 494.119202,833.710938 494.086151,836.142395 
	C493.830658,854.910095 488.130798,872.332520 481.743317,889.753967 
	C442.538605,996.682251 403.593781,1103.705933 364.546875,1210.692017 
	C363.637085,1213.184814 362.519806,1215.600952 361.544861,1218.070923 
	C360.444580,1220.858154 358.439941,1221.968506 355.617279,1221.010254 
	C352.793884,1220.051636 352.541962,1217.587769 353.174835,1215.226929 
	C354.506744,1210.258667 356.048553,1205.342529 357.630127,1200.445679 
	C388.908234,1103.605469 420.204285,1006.771118 451.651672,909.565308 
z"/>
<path fill="#070707" opacity="1.000000" stroke="none" 
	d="
M560.832520,135.000122 
	C560.830200,204.816605 560.880981,274.133179 560.766785,343.449463 
	C560.749756,353.767303 555.896057,362.982941 552.875916,372.595123 
	C552.356323,374.248779 551.077942,375.556549 549.219116,375.508179 
	C547.172913,375.454926 545.774292,374.007141 545.227356,372.201721 
	C544.218750,368.871918 543.719910,365.385956 542.684448,362.066254 
	C540.228638,354.192871 539.565491,346.229675 539.889771,337.971344 
	C542.275391,277.208069 544.455627,216.436676 546.675720,155.666946 
	C548.165894,114.876015 549.602844,74.083130 551.097046,33.292343 
	C551.316589,27.299879 551.679199,21.311520 552.059326,15.326577 
	C552.233032,12.592999 552.555908,9.745603 556.310608,9.796323 
	C560.269958,9.849808 560.004150,12.856499 560.064636,15.535350 
	C560.960693,55.186089 560.713257,94.844284 560.832520,135.000122 
z"/>
<path fill="#060606" opacity="1.000000" stroke="none" 
	d="
M831.988647,455.051392 
	C898.244507,427.718292 964.132446,400.490082 1030.031006,373.287750 
	C1031.867798,372.529541 1033.816895,372.042480 1035.717163,371.439880 
	C1037.965332,370.726990 1039.800537,371.485352 1040.720337,373.515503 
	C1041.755371,375.800323 1040.788330,377.886566 1038.742188,379.073669 
	C1036.602539,380.315033 1034.192139,381.082397 1031.927856,382.117493 
	C934.731079,426.551483 837.559631,471.041016 740.308777,515.356445 
	C730.650635,519.757446 719.868896,519.629272 709.515381,521.064636 
	C707.244324,521.379456 705.730164,519.997131 705.158264,517.781311 
	C704.534607,515.365295 705.785339,514.071899 707.577209,512.416748 
	C723.703125,497.520691 744.283630,491.252747 763.857178,483.070648 
	C786.396179,473.648895 809.029724,464.453552 831.988647,455.051392 
z"/>
<path fill="#060606" opacity="1.000000" stroke="none" 
	d="
M839.572998,583.740906 
	C917.165222,585.896240 994.289307,588.036926 1071.412964,590.188538 
	C1081.073975,590.458069 1090.733643,590.773499 1100.393066,591.097717 
	C1102.055176,591.153503 1103.783081,591.111755 1105.354004,591.559692 
	C1107.407349,592.145142 1108.900024,593.694580 1108.679199,595.949463 
	C1108.485718,597.926270 1107.055542,599.290405 1105.020996,599.499817 
	C1102.708008,599.737793 1100.366211,599.739380 1098.036133,599.760559 
	C993.049377,600.714661 888.061279,601.552917 783.077209,602.744629 
	C770.402283,602.888489 758.735962,600.048462 747.267639,595.340393 
	C745.334106,594.546570 742.691895,594.139893 742.965698,591.281006 
	C743.222534,588.599487 745.458557,587.545288 747.808960,586.921448 
	C758.407532,584.108276 768.878967,581.249146 780.149353,581.853760 
	C799.778198,582.906738 819.450623,583.148010 839.572998,583.740906 
z"/>
<path fill="#050505" opacity="1.000000" stroke="none" 
	d="
M587.797119,945.002075 
	C589.556641,1033.306030 591.302124,1121.110474 593.014893,1208.915527 
	C593.086304,1212.574463 592.938599,1216.244385 592.730469,1219.899902 
	C592.597900,1222.227173 591.119812,1223.650391 588.819336,1223.552490 
	C586.681274,1223.461426 585.072144,1222.374512 584.889709,1219.883423 
	C584.342224,1212.409058 583.612366,1204.945801 583.186157,1197.465088 
	C579.508789,1132.924683 575.892761,1068.380737 572.237244,1003.839172 
	C570.098572,966.079773 567.744141,928.331299 565.877930,890.558655 
	C565.371948,880.317688 569.201294,870.635254 572.179138,860.945374 
	C572.743286,859.109619 574.167236,858.266296 575.999512,858.483398 
	C578.265503,858.751892 579.271729,860.392578 579.987915,862.432922 
	C584.090942,874.121338 586.780273,886.037109 586.888855,898.517334 
	C587.022217,913.847168 587.466980,929.174377 587.797119,945.002075 
z"/>
<path fill="#060606" opacity="1.000000" stroke="none" 
	d="
M739.393616,349.383759 
	C791.610657,288.610992 843.591736,228.102081 895.580994,167.600174 
	C897.637268,165.207199 899.563232,162.658783 902.295349,160.958313 
	C903.992493,159.901947 905.870728,159.748169 907.450989,161.015823 
	C909.266846,162.472504 908.627380,164.355835 907.587646,165.946518 
	C905.769470,168.728241 903.920227,171.508591 901.853516,174.106216 
	C835.719910,257.232422 769.597046,340.367310 703.343018,423.397552 
	C696.593933,431.855591 686.936218,436.798370 677.778198,442.218048 
	C676.052185,443.239532 674.540955,442.883118 673.261658,441.624756 
	C671.920288,440.305298 672.052368,438.740814 672.749878,437.021210 
	C676.633606,427.446228 680.762878,418.037201 687.588867,410.066040 
	C704.811035,389.954468 721.972961,369.791321 739.393616,349.383759 
z"/>
<path fill="#050505" opacity="1.000000" stroke="none" 
	d="
M619.994629,348.926300 
	C645.433228,270.016937 670.785095,191.494736 696.141541,112.973999 
	C696.958801,110.443291 697.685059,107.854210 699.443481,105.764610 
	C700.455933,104.561546 701.772156,103.631714 703.372803,104.285385 
	C704.947083,104.928246 706.102173,106.037277 706.122375,108.047104 
	C706.146179,110.424782 705.578369,112.658913 704.944641,114.899139 
	C676.423401,215.714813 647.758301,316.490295 619.554749,417.394745 
	C616.008606,430.081726 609.468262,440.779236 602.541016,451.521698 
	C601.391479,453.304321 599.858948,454.536957 597.549927,454.019012 
	C594.906006,453.425873 594.220581,451.270813 594.299561,449.065094 
	C594.672485,438.650055 594.080994,428.252228 597.582825,418.012146 
	C605.373169,395.231812 612.507141,372.227020 619.994629,348.926300 
z"/>
<path fill="#060606" opacity="1.000000" stroke="none" 
	d="
M277.801819,963.819336 
	C261.876465,983.301025 246.180450,1002.512939 230.475250,1021.717407 
	C229.739853,1022.616699 228.991287,1023.526001 228.129166,1024.296753 
	C226.257370,1025.970093 224.209473,1027.010010 221.947449,1024.971436 
	C219.764832,1023.004456 220.212570,1020.918762 221.813507,1018.801636 
	C226.631973,1012.429688 231.397186,1006.017395 236.233612,999.659180 
	C283.797760,937.128906 331.372314,874.606445 378.943604,812.081604 
	C392.348694,794.462769 405.876129,776.935059 419.106079,759.185669 
	C425.786926,750.222595 435.457153,745.198364 444.219818,738.955383 
	C445.672302,737.920593 447.619904,737.283997 449.344147,738.690125 
	C451.177124,740.184753 451.132324,742.097473 450.279358,744.122620 
	C446.024750,754.223755 441.824188,764.254456 434.695709,772.905090 
	C382.388153,836.382385 330.232788,899.984985 277.801819,963.819336 
z"/>
</svg>